<svg xmlns="http://www.w3.org/2000/svg" width="266.667" height="266.667"><svg xmlns="http://www.w3.org/2000/svg" width="266.667" height="266.667" version="1.0" viewBox="0 0 200 200"><g fill="#6C698D" stroke="#F7EBEC"><path stroke-width=".1" d="M14.5 1.9c-2.2 1-4.8 2.8-5.8 3.9C4.1 10.9 4.1 11 4 95c0 51.7.4 80.8 1 83.2 1.4 4.8 5.5 9.7 9.7 11.4 1.8.8 6 1.4 9.3 1.4h6v9h35v-9h70v9h35v-9h6c3.3 0 7.5-.6 9.3-1.4 4.2-1.7 8.3-6.6 9.7-11.4.6-2.4 1-31.5 1-83.2-.1-84-.1-84.1-4.7-89.2-1-1.1-3.6-2.9-5.8-3.9C181.7.1 177 0 100 0S18.3.1 14.5 1.9Z"/><path d="M1665 1716c13-13 26-39 30-57 3-19 5-310 3-647l-3-614-28-24-28-24H361l-27 23c-23 20-28 34-32 85l-4 62h-78v180h80v690h-80v180h80v40c0 54 24 108 52 120 13 5 295 9 656 9l633 1 24-24Z" style="fill:#f7ebec" transform="matrix(.1 0 0 -.1 0 200)"/><path stroke-width=".1" d="M91.2 53.1c-14.6 2.8-27.9 15-32.7 29.7-1.3 4.1-1.6 7.7-1.3 15 .3 8.4.8 10.6 3.7 16.5 10.4 21.5 36 30.6 57.5 20.4 9.1-4.3 16.5-11.7 20.8-20.6 2.7-5.7 3.3-8 3.6-16.1.3-7.8 0-10.6-1.8-15.9-7.1-21.1-28-33.3-49.8-29Z"/><path d="M1211 1196c-55-56-62-66-52-84 17-33 13-109-9-151-35-70-128-107-205-81l-37 12-62-61-62-61-29 30-29 30 63 64c55 56 62 66 52 84-15 29-14 108 3 140 23 45 68 80 118 93 39 11 52 10 86-3l40-16 63 64 64 64 30-30 30-30-64-64Z" style="fill:#f7ebec" transform="matrix(.1 0 0 -.1 0 200)"/></g></svg><style>@media (prefers-color-scheme:light){:root{filter:none}}@media (prefers-color-scheme:dark){:root{filter:none}}</style></svg>